name Walk6.mot
datacolumns 19
datarows 15
range 3.35000000 3.36400000
endheader

                time	   L_ground_force_vx	   L_ground_force_vy	   L_ground_force_vz	   L_ground_force_px	   L_ground_force_py	   L_ground_force_pz	   R_ground_force_vx	   R_ground_force_vy	   R_ground_force_vz	   R_ground_force_px	   R_ground_force_py	   R_ground_force_pz	   L_ground_torque_x	   L_ground_torque_y	   L_ground_torque_z	   R_ground_torque_x	   R_ground_torque_y	   R_ground_torque_z	
          3.35000000	          0.00000000	          0.00000000	          0.00000000	         -0.00000000	          0.00000000	         -0.00000000	          7.85805010	         43.77654305	          0.08671673	          0.15289146	          0.00000000	          0.09881237	          0.00000000	          0.00000000	          0.00000000	          0.00000000	         -2.20332391	          0.00000000	
          3.35100000	          0.00000000	          0.00000000	          0.00000000	         -0.00000000	          0.00000000	         -0.00000000	          7.11694593	         40.07958152	          0.16528993	          0.14819794	          0.00000000	          0.09552484	          0.00000000	          0.00000000	          0.00000000	          0.00000000	         -2.06242418	          0.00000000	
          3.35200000	          0.00000000	          0.00000000	          0.00000000	         -0.00000000	          0.00000000	         -0.00000000	          6.41127090	         36.54900092	          0.23616273	          0.14339393	          0.00000000	          0.09218534	          0.00000000	          0.00000000	          0.00000000	          0.00000000	         -1.92576098	          0.00000000	
          3.35300000	          0.00000000	          0.00000000	          0.00000000	         -0.00000000	          0.00000000	         -0.00000000	          5.74088568	         33.18279544	          0.29984681	          0.13849166	          0.00000000	          0.08880197	          0.00000000	          0.00000000	          0.00000000	          0.00000000	         -1.79346951	          0.00000000	
          3.35400000	          0.00000000	          0.00000000	          0.00000000	         -0.00000000	          0.00000000	         -0.00000000	          5.10550202	         29.97877891	          0.35681641	          0.13350519	          0.00000000	          0.08538374	          0.00000000	          0.00000000	          0.00000000	          0.00000000	         -1.66566407	          0.00000000	
          3.35500000	          0.00000000	          0.00000000	          0.00000000	         -0.00000000	          0.00000000	         -0.00000000	          4.50468509	         26.93460326	          0.40750561	          0.12845050	          0.00000000	          0.08194069	          0.00000000	          0.00000000	          0.00000000	          0.00000000	         -1.54243782	          0.00000000	
          3.35600000	          0.00000000	          0.00000000	          0.00000000	         -0.00000000	          0.00000000	         -0.00000000	          3.93786059	         24.04776431	          0.45230823	          0.12334557	          0.00000000	          0.07848390	          0.00000000	          0.00000000	          0.00000000	          0.00000000	         -1.42386270	          0.00000000	
          3.35700000	          0.00000000	          0.00000000	          0.00000000	         -0.00000000	          0.00000000	         -0.00000000	          3.40432974	         21.31558575	          0.49158191	          0.11821019	          0.00000000	          0.07502538	          0.00000000	          0.00000000	          0.00000000	          0.00000000	         -1.30998949	          0.00000000	
          3.35800000	          0.00000000	          0.00000000	          0.00000000	         -0.00000000	          0.00000000	         -0.00000000	          2.90329494	         18.73517278	          0.52565735	          0.11306498	          0.00000000	          0.07157755	          0.00000000	          0.00000000	          0.00000000	          0.00000000	         -1.20084818	          0.00000000	
          3.35900000	          0.00000000	          0.00000000	          0.00000000	         -0.00000000	          0.00000000	         -0.00000000	          2.43388934	         16.30336140	          0.55484922	          0.10792999	          0.00000000	          0.06815239	          0.00000000	          0.00000000	          0.00000000	          0.00000000	         -1.09644880	          0.00000000	
          3.36000000	          0.00000000	          0.00000000	          0.00000000	         -0.00000000	          0.00000000	         -0.00000000	          1.99519745	         14.01670615	          0.57946242	          0.10282376	          0.00000000	          0.06476092	          0.00000000	          0.00000000	          0.00000000	          0.00000000	         -0.99678266	          0.00000000	
          3.36100000	          0.00000000	          0.00000000	          0.00000000	         -0.00000000	          0.00000000	         -0.00000000	          1.58626558	         11.87150598	          0.59979326	          0.09776313	          0.00000000	          0.06141310	          0.00000000	          0.00000000	          0.00000000	          0.00000000	         -0.90182394	          0.00000000	
          3.36200000	          0.00000000	          0.00000000	          0.00000000	         -0.00000000	          0.00000000	         -0.00000000	          1.20610868	          9.86384001	          0.61612900	          0.09276335	          0.00000000	          0.05811785	          0.00000000	          0.00000000	          0.00000000	          0.00000000	         -0.81153122	          0.00000000	
          3.36300000	          0.00000000	          0.00000000	          0.00000000	         -0.00000000	          0.00000000	         -0.00000000	          0.85371670	          7.98960100	          0.62874761	          0.08783815	          0.00000000	          0.05488316	          0.00000000	          0.00000000	          0.00000000	          0.00000000	         -0.72584898	          0.00000000	
          3.36400000	          0.00000000	          0.00000000	          0.00000000	         -0.00000000	          0.00000000	         -0.00000000	          0.52806055	          6.24452675	          0.63791743	          0.08299979	          0.00000000	          0.05171612	          0.00000000	          0.00000000	          0.00000000	          0.00000000	         -0.64470899	          0.00000000	
